# xmcd
#
# Track frame offsets:
#	150
#	12035
#	22061
#	31654
#	44519
#	55916
#	69700
#	80857
#	97841
#	104883
#	117017
#	134602
#	143186
#	158258
#
# Disc length: 2258
#
# Revision: 1
# Processed by: cddbd v1.5.1PL0 Copyright (c) Steve Scherf et al.
# Submitted via: ExactAudioCopy v0.90b4
# Normalized: r0:DSETVAR1,TDELIM( - )
#
DISCID=ba08d00e
DTITLE=Various Artist - Highwaymen - CD1
DYEAR=2000
DGENRE=Country
TTITLE0=Johnny Cash - Highwayman (live)
TTITLE1=Willie Nelson - On The Road Again (live)
TTITLE2=Waylon Jennings - Abilene
TTITLE3=Kris Kristofferson - Jesse Younger
TTITLE4=Johnny Cash - Big River (live)
TTITLE5=Willie Nelson - Blue Eyes Crying In The Rain (live)
TTITLE6=Waylon Jennings - Lorena
TTITLE7=Johnny Cash - Sunday Morning Coming Down (live)
TTITLE8=Willie Nelson - Luckenbach, Texas (live)
TTITLE9=Waylon Jennings - Don't Think Twice, It's All Right
TTITLE10=Kris Kristofferson - Just The Other Side Of Nowhere
TTITLE11=Johnny Cash - I Got Stripes (live)
TTITLE12=Willie Nelson - The Face Of A Fighter
TTITLE13=Waylon Jennings - Sally Was A Good Old Girl
EXTD=
EXTT0=
EXTT1=
EXTT2=
EXTT3=
EXTT4=
EXTT5=
EXTT6=
EXTT7=
EXTT8=
EXTT9=
EXTT10=
EXTT11=
EXTT12=
EXTT13=
PLAYORDER=
